<mxfile host="app.diagrams.net" modified="2021-09-24T11:52:13.801Z" agent="5.0 (Windows NT 10.0; Win64; x64) AppleWebKit/537.36 (KHTML, like Gecko) Chrome/93.0.4577.82 Safari/537.36 Edg/93.0.961.52" etag="Ob8K3XHQW57iWXpJJFON" version="15.3.0" type="github">
  <diagram id="GsDLOKu6P4pif-Unxggs" name="Page-1">
    <mxGraphModel dx="1038" dy="547" grid="1" gridSize="10" guides="1" tooltips="1" connect="1" arrows="1" fold="1" page="1" pageScale="1" pageWidth="827" pageHeight="1169" math="0" shadow="0">
      <root>
        <mxCell id="0" />
        <mxCell id="1" parent="0" />
        <mxCell id="2Tmv5vAIBAJj2OIOrJEm-6" style="edgeStyle=orthogonalEdgeStyle;rounded=0;orthogonalLoop=1;jettySize=auto;html=1;exitX=0.5;exitY=1;exitDx=0;exitDy=0;entryX=0.5;entryY=0;entryDx=0;entryDy=0;" edge="1" parent="1" source="2Tmv5vAIBAJj2OIOrJEm-2" target="2Tmv5vAIBAJj2OIOrJEm-3">
          <mxGeometry relative="1" as="geometry" />
        </mxCell>
        <mxCell id="2Tmv5vAIBAJj2OIOrJEm-2" value="为现实建模" style="rounded=1;whiteSpace=wrap;html=1;" vertex="1" parent="1">
          <mxGeometry x="354" y="40" width="120" height="60" as="geometry" />
        </mxCell>
        <mxCell id="2Tmv5vAIBAJj2OIOrJEm-7" style="edgeStyle=orthogonalEdgeStyle;rounded=0;orthogonalLoop=1;jettySize=auto;html=1;exitX=0.5;exitY=1;exitDx=0;exitDy=0;" edge="1" parent="1" source="2Tmv5vAIBAJj2OIOrJEm-3" target="2Tmv5vAIBAJj2OIOrJEm-4">
          <mxGeometry relative="1" as="geometry" />
        </mxCell>
        <mxCell id="2Tmv5vAIBAJj2OIOrJEm-3" value="数据获取和清洗" style="rounded=1;whiteSpace=wrap;html=1;" vertex="1" parent="1">
          <mxGeometry x="354" y="130" width="120" height="60" as="geometry" />
        </mxCell>
        <mxCell id="2Tmv5vAIBAJj2OIOrJEm-8" style="edgeStyle=orthogonalEdgeStyle;rounded=0;orthogonalLoop=1;jettySize=auto;html=1;exitX=0.5;exitY=1;exitDx=0;exitDy=0;entryX=0.5;entryY=0;entryDx=0;entryDy=0;" edge="1" parent="1" source="2Tmv5vAIBAJj2OIOrJEm-4" target="2Tmv5vAIBAJj2OIOrJEm-5">
          <mxGeometry relative="1" as="geometry" />
        </mxCell>
        <mxCell id="2Tmv5vAIBAJj2OIOrJEm-4" value="数据处理" style="rounded=1;whiteSpace=wrap;html=1;" vertex="1" parent="1">
          <mxGeometry x="354" y="220" width="120" height="60" as="geometry" />
        </mxCell>
        <mxCell id="2Tmv5vAIBAJj2OIOrJEm-5" value="数据输出和可视化" style="rounded=1;whiteSpace=wrap;html=1;" vertex="1" parent="1">
          <mxGeometry x="354" y="310" width="120" height="60" as="geometry" />
        </mxCell>
        <mxCell id="2Tmv5vAIBAJj2OIOrJEm-9" value="" style="endArrow=none;dashed=1;html=1;" edge="1" parent="1">
          <mxGeometry width="50" height="50" relative="1" as="geometry">
            <mxPoint x="350" y="110" as="sourcePoint" />
            <mxPoint x="480" y="110" as="targetPoint" />
            <Array as="points" />
          </mxGeometry>
        </mxCell>
        <mxCell id="2Tmv5vAIBAJj2OIOrJEm-10" value="" style="endArrow=none;dashed=1;html=1;" edge="1" parent="1">
          <mxGeometry width="50" height="50" relative="1" as="geometry">
            <mxPoint x="344" y="200" as="sourcePoint" />
            <mxPoint x="474" y="200" as="targetPoint" />
            <Array as="points" />
          </mxGeometry>
        </mxCell>
        <mxCell id="2Tmv5vAIBAJj2OIOrJEm-11" value="" style="endArrow=none;dashed=1;html=1;" edge="1" parent="1">
          <mxGeometry width="50" height="50" relative="1" as="geometry">
            <mxPoint x="349" y="290" as="sourcePoint" />
            <mxPoint x="479" y="290" as="targetPoint" />
            <Array as="points" />
          </mxGeometry>
        </mxCell>
        <mxCell id="2Tmv5vAIBAJj2OIOrJEm-12" value="" style="strokeWidth=2;html=1;shape=mxgraph.flowchart.annotation_2;align=left;labelPosition=right;pointerEvents=1;" vertex="1" parent="1">
          <mxGeometry x="474" y="200" width="50" height="100" as="geometry" />
        </mxCell>
      </root>
    </mxGraphModel>
  </diagram>
</mxfile>
